<?xml version="1.0" encoding="utf-8"?>
<!-- Generator: Adobe Illustrator 19.1.0, SVG Export Plug-In . SVG Version: 6.00 Build 0)  -->
<svg version="1.1" id="Calque_1" xmlns="http://www.w3.org/2000/svg" xmlns:xlink="http://www.w3.org/1999/xlink" x="0px" y="0px"
	 viewBox="206 -206 512 512" style="enable-background:new 206 -206 512 512;" xml:space="preserve">
<path id="facebook-circle-icon" d="M462.4-156c-113.8,0-206,92.2-206,206s92.2,206,206,206s206-92.2,206-206S576.2-156,462.4-156z
	 M523.4-34.8c0,0-20.6,0-28.8,0c-10.2,0-12.3,4.2-12.3,14.7c0,8.8,0,25.4,0,25.4h41.1l-4,44.6h-37.1v133.2h-53.2V50.4h-27.7V5.3
	h27.7c0,0,0-6.5,0-35.6c0-33.4,17.8-50.8,57.4-50.8c6.5,0,36.8,0,36.8,0L523.4-34.8L523.4-34.8z" fill="#3f5a9e"/>
</svg>
